<svg id="svg" version="1.1" xmlns="http://www.w3.org/2000/svg" xmlns:xlink="http://www.w3.org/1999/xlink" width="400" height="400" viewBox="0, 0, 400,400"><g id="svgg"><path id="path0" d="M185.200 0.632 C 184.870 0.720,181.990 1.063,178.800 1.393 C 168.487 2.459,158.966 3.917,153.600 5.251 C 152.610 5.497,151.170 5.841,150.400 6.016 C 148.583 6.428,143.744 7.721,140.200 8.741 C 138.660 9.184,136.395 9.826,135.168 10.168 C 133.940 10.510,131.666 11.313,130.115 11.953 C 128.564 12.592,126.688 13.248,125.947 13.409 C 125.206 13.570,124.245 13.949,123.811 14.251 C 123.377 14.553,122.796 14.800,122.519 14.800 C 122.242 14.800,120.478 15.520,118.600 16.400 C 116.722 17.280,115.050 18.000,114.886 18.000 C 114.722 18.000,111.621 19.506,107.994 21.346 C 101.895 24.441,99.013 26.010,95.257 28.281 C 94.455 28.765,93.350 29.390,92.800 29.670 C 92.250 29.950,90.884 30.858,89.764 31.689 C 88.644 32.520,87.590 33.200,87.421 33.200 C 87.253 33.200,86.433 33.740,85.600 34.400 C 84.767 35.060,83.905 35.600,83.685 35.600 C 83.465 35.600,83.182 35.870,83.055 36.200 C 82.929 36.530,82.619 36.800,82.368 36.800 C 82.117 36.800,81.076 37.490,80.056 38.333 C 79.035 39.176,77.930 39.970,77.600 40.098 C 77.270 40.225,75.427 41.696,73.504 43.365 C 71.582 45.034,69.807 46.400,69.561 46.400 C 68.976 46.400,46.400 68.976,46.400 69.561 C 46.400 69.807,45.034 71.582,43.365 73.504 C 41.696 75.427,40.225 77.270,40.098 77.600 C 39.970 77.930,39.176 79.035,38.333 80.056 C 37.490 81.076,36.800 82.117,36.800 82.368 C 36.800 82.619,36.530 82.929,36.200 83.055 C 35.870 83.182,35.600 83.465,35.600 83.685 C 35.600 83.905,35.060 84.767,34.400 85.600 C 33.740 86.433,33.200 87.245,33.200 87.404 C 33.200 87.563,32.532 88.603,31.716 89.715 C 30.900 90.827,29.925 92.291,29.551 92.968 C 29.177 93.646,28.520 94.830,28.092 95.600 C 27.664 96.370,26.540 98.440,25.594 100.200 C 24.648 101.960,23.581 103.850,23.222 104.400 C 22.478 105.540,20.409 109.821,18.197 114.800 C 16.056 119.617,15.780 120.274,14.628 123.300 C 14.063 124.785,13.150 127.156,12.600 128.568 C 12.050 129.981,11.600 131.333,11.600 131.574 C 11.600 131.814,11.433 132.323,11.229 132.705 C 10.376 134.300,8.081 142.396,5.590 152.600 C 5.321 153.700,4.942 155.500,4.747 156.600 C 4.553 157.700,4.130 160.040,3.809 161.800 C -0.766 186.857,-0.683 212.944,4.060 240.400 C 4.981 245.731,4.985 245.747,8.997 261.000 C 9.819 264.123,13.610 275.230,14.365 276.725 C 14.553 277.096,15.293 278.840,16.011 280.600 C 18.490 286.681,21.764 293.541,24.792 299.000 C 29.122 306.808,28.744 306.167,32.000 311.198 C 33.210 313.067,34.272 314.769,34.361 314.980 C 34.449 315.191,34.672 315.552,34.857 315.782 C 36.493 317.817,38.400 320.423,38.400 320.622 C 38.400 320.920,42.797 326.439,47.072 331.508 C 49.990 334.967,65.423 350.800,65.878 350.800 C 65.990 350.800,67.549 352.105,69.341 353.700 C 71.134 355.295,72.890 356.780,73.244 357.000 C 73.598 357.220,75.247 358.480,76.907 359.800 C 80.706 362.820,85.072 366.000,85.420 366.000 C 85.566 366.000,86.341 366.495,87.144 367.100 C 87.947 367.705,88.962 368.419,89.402 368.686 C 89.841 368.953,91.550 370.009,93.200 371.032 C 100.592 375.618,108.148 379.530,118.200 383.975 C 119.080 384.364,121.060 385.173,122.600 385.773 C 124.140 386.373,125.991 387.119,126.714 387.432 C 127.436 387.744,128.246 388.001,128.514 388.002 C 128.781 388.004,129.450 388.238,130.000 388.523 C 130.550 388.808,132.350 389.452,134.000 389.954 C 135.650 390.456,138.008 391.212,139.241 391.633 C 140.474 392.055,141.749 392.400,142.075 392.400 C 142.401 392.400,143.733 392.739,145.034 393.154 C 147.166 393.832,150.037 394.505,158.000 396.189 C 159.430 396.491,163.030 397.104,166.000 397.550 C 168.970 397.997,173.560 398.686,176.200 399.081 C 183.279 400.141,216.510 400.143,224.200 399.084 C 236.483 397.391,244.850 395.901,251.400 394.237 C 257.822 392.606,259.939 392.022,261.550 391.436 C 262.513 391.086,263.717 390.800,264.227 390.800 C 264.736 390.800,265.253 390.638,265.375 390.440 C 265.497 390.242,266.543 389.859,267.699 389.588 C 268.854 389.317,269.980 388.954,270.200 388.782 C 270.420 388.610,272.130 387.923,274.000 387.256 C 280.814 384.826,281.402 384.595,281.533 384.300 C 281.607 384.135,281.826 384.000,282.021 384.000 C 282.600 384.000,286.579 382.149,293.484 378.668 C 301.557 374.599,302.069 374.326,304.007 373.043 C 304.874 372.469,305.680 372.000,305.799 372.000 C 305.919 372.000,307.658 370.920,309.665 369.600 C 311.672 368.280,313.453 367.200,313.624 367.200 C 313.794 367.200,313.993 367.065,314.067 366.900 C 314.196 366.609,317.364 364.402,318.231 364.000 C 318.893 363.692,324.517 359.291,327.814 356.500 C 329.438 355.125,330.870 354.000,330.996 354.000 C 331.122 354.000,331.887 353.280,332.696 352.400 C 333.505 351.520,334.356 350.800,334.587 350.800 C 335.131 350.800,350.800 335.124,350.800 334.580 C 350.800 334.353,351.520 333.505,352.400 332.696 C 353.280 331.887,354.000 331.122,354.000 330.996 C 354.000 330.870,355.125 329.438,356.500 327.814 C 359.291 324.517,363.692 318.893,364.000 318.231 C 364.402 317.364,366.609 314.196,366.900 314.067 C 367.065 313.993,367.200 313.756,367.200 313.540 C 367.200 313.324,367.650 312.557,368.200 311.836 C 368.750 311.114,369.200 310.407,369.200 310.263 C 369.200 310.119,369.830 309.125,370.600 308.053 C 371.370 306.981,372.000 305.987,372.000 305.844 C 372.000 305.701,372.483 304.823,373.073 303.892 C 375.490 300.080,382.095 286.842,383.997 282.000 C 384.472 280.790,385.104 279.260,385.402 278.600 C 385.699 277.940,386.173 276.680,386.455 275.800 C 386.736 274.920,387.094 274.020,387.248 273.800 C 387.567 273.347,390.269 265.237,391.513 261.000 C 392.944 256.127,393.706 253.443,394.070 252.000 C 395.451 246.517,397.769 233.500,398.440 227.465 C 398.664 225.449,399.041 222.270,399.278 220.400 C 399.878 215.664,399.857 184.415,399.250 179.800 C 398.989 177.820,398.587 174.490,398.356 172.400 C 397.973 168.939,396.939 162.686,395.444 154.800 C 395.132 153.150,394.415 150.090,393.851 148.000 C 393.287 145.910,392.714 143.750,392.577 143.200 C 391.698 139.665,387.890 127.768,387.220 126.462 C 387.033 126.098,386.399 124.540,385.812 123.000 C 384.600 119.823,384.361 119.256,382.005 114.000 C 379.770 109.014,375.826 101.308,373.611 97.600 C 373.413 97.270,372.570 95.830,371.737 94.400 C 370.903 92.970,369.811 91.243,369.311 90.562 C 368.810 89.881,368.400 89.187,368.400 89.020 C 368.400 88.852,367.860 88.033,367.200 87.200 C 366.540 86.367,366.000 85.566,366.000 85.420 C 366.000 85.072,362.820 80.706,359.800 76.907 C 358.480 75.247,357.220 73.598,357.000 73.244 C 356.780 72.890,355.295 71.134,353.700 69.341 C 352.105 67.549,350.800 65.990,350.800 65.878 C 350.800 65.423,334.967 49.990,331.508 47.072 C 326.439 42.797,320.920 38.400,320.622 38.400 C 320.417 38.400,317.460 36.228,315.717 34.797 C 315.451 34.579,315.152 34.400,315.051 34.400 C 314.950 34.400,313.368 33.388,311.534 32.152 C 309.700 30.916,307.930 29.799,307.600 29.671 C 307.270 29.543,306.227 28.916,305.282 28.278 C 302.120 26.145,287.648 18.703,284.600 17.643 C 283.720 17.338,282.910 16.976,282.800 16.840 C 282.690 16.704,281.520 16.178,280.200 15.672 C 278.880 15.166,277.260 14.512,276.600 14.220 C 275.940 13.927,274.230 13.288,272.800 12.800 C 271.370 12.312,269.660 11.672,269.000 11.378 C 268.340 11.084,266.810 10.580,265.600 10.259 C 264.390 9.937,261.420 9.100,259.000 8.398 C 251.430 6.202,248.018 5.366,243.445 4.585 C 241.489 4.252,239.738 3.885,239.553 3.771 C 239.156 3.525,230.101 2.251,222.200 1.329 C 217.006 0.723,186.972 0.157,185.200 0.632 M216.600 16.367 C 280.980 22.029,339.253 62.319,366.493 120.000 C 369.752 126.901,370.095 127.680,371.780 132.000 C 372.595 134.090,373.434 136.228,373.646 136.752 C 374.347 138.489,377.120 146.962,377.784 149.400 C 381.371 162.558,383.030 171.795,384.394 186.200 C 387.793 222.098,376.893 266.936,357.409 297.200 C 353.086 303.916,351.329 306.484,347.972 311.000 C 306.767 366.433,236.519 394.158,168.000 382.029 C 157.683 380.203,143.497 376.402,136.800 373.669 C 136.250 373.445,134.090 372.595,132.000 371.780 C 127.680 370.095,126.901 369.752,120.000 366.493 C 33.467 325.628,-7.478 220.158,28.890 131.800 C 29.976 129.160,31.046 126.510,31.268 125.912 C 33.131 120.874,40.663 107.055,45.937 99.000 C 76.044 53.016,126.872 21.939,180.400 16.785 C 182.710 16.563,186.220 16.219,188.200 16.021 C 192.617 15.580,210.064 15.792,216.600 16.367 " stroke="none" fill="#0f0f0f" fill-rule="evenodd"></path><path id="path1" d="M139.200 61.053 C 139.200 61.192,141.532 63.541,144.383 66.274 C 157.877 79.210,168.410 95.916,174.139 113.467 C 179.078 128.599,180.530 141.042,180.319 166.400 L 180.200 180.600 164.800 180.708 C 148.307 180.824,139.968 180.448,132.000 179.230 C 106.361 175.311,83.588 163.462,65.394 144.574 C 62.970 142.058,60.855 140.000,60.694 140.000 C 60.532 140.000,60.400 167.180,60.400 200.400 C 60.400 233.620,60.492 260.800,60.605 260.800 C 60.717 260.800,63.217 258.325,66.161 255.300 C 84.300 236.658,105.900 225.507,132.200 221.206 C 141.037 219.760,178.712 218.872,179.920 220.080 C 181.116 221.276,180.257 258.193,178.815 267.600 C 178.167 271.824,177.144 276.958,176.826 277.576 C 176.650 277.919,176.379 278.920,176.224 279.800 C 173.348 296.161,159.460 319.674,143.768 334.753 L 138.723 339.600 199.561 339.600 C 233.023 339.600,260.400 339.489,260.400 339.354 C 260.400 339.219,259.647 338.454,258.727 337.654 C 242.608 323.644,229.487 302.811,223.800 282.200 C 220.070 268.683,219.126 258.838,219.292 235.200 L 219.400 219.800 232.800 219.666 C 268.135 219.314,286.505 223.190,308.000 235.533 C 318.293 241.444,331.629 252.293,336.800 258.964 C 337.570 259.957,338.425 260.777,338.700 260.785 C 339.098 260.797,339.200 248.421,339.200 200.200 C 339.200 166.870,339.137 139.600,339.059 139.600 C 338.981 139.600,335.876 142.617,332.159 146.304 C 316.374 161.962,300.658 170.981,278.800 176.927 C 267.431 180.020,257.596 180.865,234.800 180.707 L 219.400 180.600 219.407 160.800 C 219.412 146.948,219.562 140.159,219.907 138.200 C 220.177 136.660,220.662 133.600,220.983 131.400 C 223.259 115.818,229.710 99.315,238.854 85.675 C 243.247 79.122,247.219 74.345,253.683 67.836 C 257.377 64.116,260.400 61.011,260.400 60.936 C 260.400 60.861,233.130 60.800,199.800 60.800 C 166.470 60.800,139.200 60.914,139.200 61.053 " stroke="none" fill="#dd3137" fill-rule="evenodd"></path><path id="path2" d="M189.600 16.374 C 170.091 17.762,151.359 21.767,135.200 28.006 C 133.990 28.473,132.370 29.093,131.600 29.383 C 87.910 45.846,45.846 87.910,29.383 131.600 C 29.093 132.370,28.473 133.990,28.006 135.200 C -11.078 236.427,47.868 350.270,154.000 378.530 C 155.898 379.036,160.260 379.989,168.200 381.634 C 170.162 382.040,175.255 382.753,182.800 383.677 C 187.799 384.289,212.601 384.289,217.600 383.677 C 231.160 382.017,234.394 381.450,244.421 378.979 C 255.282 376.302,265.222 372.884,276.000 368.120 C 309.937 353.121,340.715 325.318,359.601 292.598 C 401.326 220.313,389.442 129.146,330.623 70.292 C 293.496 33.144,240.219 12.775,189.600 16.374 M260.681 61.042 C 260.762 61.285,259.697 62.541,258.314 63.834 C 238.197 82.633,225.895 105.028,221.560 130.745 C 220.346 137.944,220.007 144.993,220.004 163.100 L 220.000 180.000 236.900 179.996 C 258.599 179.992,264.416 179.585,274.800 177.345 C 280.808 176.050,289.602 173.291,293.912 171.351 C 295.073 170.828,296.121 170.400,296.239 170.400 C 296.774 170.400,306.207 165.483,309.975 163.240 C 318.104 158.402,325.322 152.606,333.141 144.641 C 338.685 138.994,338.955 138.785,339.357 139.833 C 339.755 140.869,339.626 260.539,339.227 261.170 C 338.950 261.608,337.403 260.263,332.533 255.350 C 313.553 236.203,292.630 225.656,265.439 221.530 C 260.408 220.766,257.655 220.655,239.900 220.502 L 220.000 220.330 220.012 237.665 C 220.024 256.500,220.318 262.484,221.595 269.972 C 225.711 294.095,237.106 315.769,254.861 333.246 C 258.127 336.461,260.800 339.296,260.800 339.546 C 260.800 340.089,138.978 340.211,138.643 339.669 C 138.530 339.487,141.362 336.382,144.937 332.769 C 150.145 327.505,154.964 321.970,158.320 317.400 C 158.795 316.753,161.378 312.734,162.430 311.006 C 162.963 310.129,163.580 309.120,163.800 308.765 C 166.656 304.146,172.191 291.617,174.209 285.200 C 178.527 271.475,179.262 265.282,179.490 240.700 L 179.679 220.400 162.539 220.406 C 140.367 220.415,132.789 221.071,121.200 223.987 C 110.490 226.682,96.642 232.479,89.200 237.382 C 88.430 237.890,86.486 239.148,84.879 240.180 C 79.069 243.910,72.117 249.846,64.990 257.165 C 62.499 259.722,60.753 261.218,60.467 261.041 C 60.114 260.823,60.000 245.906,60.000 200.176 C 60.000 130.162,59.392 137.307,64.843 143.271 C 75.817 155.278,91.365 165.887,106.600 171.762 C 108.140 172.356,109.760 172.994,110.200 173.180 C 122.223 178.254,135.363 179.970,162.339 179.988 L 179.679 180.000 179.482 159.700 C 179.280 138.864,179.111 136.388,177.241 126.928 C 174.611 113.621,169.362 100.843,160.680 86.613 C 157.344 81.144,148.999 71.335,142.411 65.138 C 140.058 62.925,138.422 61.089,138.577 60.837 C 138.965 60.209,260.471 60.414,260.681 61.042 " stroke="none" fill="#fbfbfb" fill-rule="evenodd"></path><path id="path3" d="M189.400 15.967 C 188.080 16.095,192.940 16.200,200.200 16.200 C 207.460 16.200,212.230 16.086,210.800 15.947 C 207.599 15.635,192.679 15.649,189.400 15.967 M178.648 16.839 C 176.914 17.022,175.384 17.288,175.248 17.430 C 174.983 17.707,180.055 17.334,183.638 16.814 L 185.800 16.500 183.800 16.503 C 182.700 16.505,180.381 16.656,178.648 16.839 M218.800 16.998 C 220.890 17.291,223.230 17.529,224.000 17.525 L 225.400 17.518 224.077 17.205 C 223.350 17.033,221.010 16.795,218.877 16.678 L 215.000 16.464 218.800 16.998 M226.100 17.876 C 226.485 17.976,227.115 17.976,227.500 17.876 C 227.885 17.775,227.570 17.693,226.800 17.693 C 226.030 17.693,225.715 17.775,226.100 17.876 M167.861 18.419 C 165.044 18.892,164.982 19.329,167.781 18.982 C 170.890 18.597,172.802 18.062,171.000 18.081 C 170.340 18.088,168.927 18.241,167.861 18.419 M230.000 18.452 C 237.977 20.074,242.112 20.822,242.264 20.670 C 242.601 20.333,231.003 17.979,229.323 18.043 C 228.492 18.075,228.667 18.181,230.000 18.452 M159.600 20.112 C 158.610 20.346,158.070 20.594,158.400 20.664 C 158.730 20.733,159.990 20.542,161.200 20.239 C 162.410 19.936,162.950 19.688,162.400 19.687 C 161.850 19.686,160.590 19.877,159.600 20.112 M153.600 21.606 C 152.170 22.015,150.217 22.553,149.260 22.801 C 148.302 23.049,147.606 23.339,147.711 23.445 C 147.897 23.630,157.229 21.274,157.567 20.957 C 157.949 20.598,156.029 20.913,153.600 21.606 M244.200 21.385 C 245.080 21.690,246.160 21.947,246.600 21.957 C 248.036 21.990,246.370 21.312,244.400 21.061 L 242.600 20.832 244.200 21.385 M249.800 22.759 C 251.194 23.413,257.674 25.260,257.874 25.060 C 258.072 24.861,252.314 23.029,250.200 22.617 C 249.258 22.434,249.172 22.464,249.800 22.759 M140.600 25.572 C 137.520 26.646,133.470 28.152,131.600 28.920 C 129.730 29.687,127.390 30.647,126.400 31.053 C 99.836 41.935,71.635 64.218,52.808 89.200 C 44.876 99.726,34.261 117.818,31.268 125.912 C 31.046 126.510,29.973 129.160,28.883 131.800 C 26.512 137.540,23.502 146.305,23.698 146.895 C 23.775 147.126,24.437 145.445,25.169 143.158 C 42.562 88.792,86.494 44.323,140.987 25.922 C 144.294 24.805,147.075 23.826,147.167 23.746 C 147.743 23.242,145.481 23.871,140.600 25.572 M258.400 25.368 C 258.400 25.460,259.345 25.842,260.500 26.216 C 309.349 42.041,353.708 84.819,372.019 133.760 C 372.492 135.022,372.971 135.962,373.085 135.848 C 373.704 135.230,366.057 118.436,361.251 109.858 C 342.293 76.022,311.543 47.819,276.400 32.035 C 268.960 28.693,258.400 24.782,258.400 25.368 M373.212 136.416 C 373.205 136.534,374.116 139.414,375.235 142.816 C 376.354 146.217,378.064 152.060,379.033 155.800 C 380.003 159.540,380.691 161.831,380.562 160.892 C 380.341 159.285,379.271 154.861,377.784 149.400 C 376.423 144.406,373.267 135.441,373.212 136.416 M67.400 146.800 C 68.259 147.680,69.052 148.400,69.162 148.400 C 69.272 148.400,68.659 147.680,67.800 146.800 C 66.941 145.920,66.148 145.200,66.038 145.200 C 65.928 145.200,66.541 145.920,67.400 146.800 M22.801 149.260 C 22.553 150.217,21.990 152.314,21.549 153.920 C 21.108 155.526,20.812 157.037,20.892 157.277 C 20.972 157.517,21.621 155.505,22.334 152.805 C 23.046 150.105,23.544 147.811,23.441 147.708 C 23.337 147.604,23.050 148.302,22.801 149.260 M20.005 160.177 C 19.749 161.410,19.612 162.635,19.700 162.900 C 19.788 163.164,20.084 162.243,20.358 160.852 C 20.632 159.460,20.769 158.235,20.663 158.129 C 20.557 158.023,20.261 158.945,20.005 160.177 M310.500 163.246 C 309.137 164.119,308.695 164.706,309.900 164.043 C 310.818 163.539,312.256 162.427,312.000 162.419 C 311.890 162.416,311.215 162.788,310.500 163.246 M381.039 164.723 C 381.172 165.890,381.441 167.330,381.636 167.923 C 381.883 168.671,381.920 168.278,381.759 166.635 C 381.631 165.334,381.362 163.894,381.162 163.435 C 380.915 162.871,380.876 163.289,381.039 164.723 M18.678 166.481 C 18.298 168.076,17.890 172.210,18.133 171.983 C 18.450 171.689,19.319 165.986,19.084 165.750 C 18.980 165.647,18.798 165.976,18.678 166.481 M382.464 172.600 C 382.462 173.260,382.706 175.240,383.007 177.000 L 383.555 180.200 383.332 176.861 C 383.210 175.024,382.966 173.044,382.789 172.461 L 382.469 171.400 382.464 172.600 M17.058 176.882 C 16.657 179.777,16.278 185.600,16.491 185.600 C 16.761 185.600,17.734 175.601,17.489 175.355 C 17.383 175.250,17.189 175.936,17.058 176.882 M282.600 175.600 C 282.096 175.817,282.022 175.944,282.400 175.944 C 282.730 175.944,283.360 175.789,283.800 175.600 C 284.304 175.383,284.378 175.256,284.000 175.256 C 283.670 175.256,283.040 175.411,282.600 175.600 M120.000 176.782 C 120.330 177.005,120.945 177.191,121.367 177.194 C 122.390 177.202,122.071 176.973,120.600 176.644 C 119.724 176.448,119.562 176.485,120.000 176.782 M276.800 177.218 C 276.362 177.515,276.524 177.552,277.400 177.356 C 278.871 177.027,279.190 176.798,278.167 176.806 C 277.745 176.809,277.130 176.995,276.800 177.218 M126.800 178.405 C 127.130 178.616,127.925 178.791,128.567 178.794 C 130.114 178.802,129.777 178.571,127.800 178.268 C 126.710 178.101,126.391 178.145,126.800 178.405 M268.800 178.820 C 268.126 179.049,268.451 179.084,269.800 178.928 C 270.900 178.801,271.875 178.631,271.967 178.549 C 272.282 178.268,269.799 178.480,268.800 178.820 M139.491 180.289 C 140.201 180.377,141.461 180.379,142.291 180.292 C 143.121 180.205,142.540 180.133,141.000 180.131 C 139.460 180.129,138.781 180.200,139.491 180.289 M256.900 180.291 C 257.725 180.378,259.075 180.378,259.900 180.291 C 260.725 180.205,260.050 180.134,258.400 180.134 C 256.750 180.134,256.075 180.205,256.900 180.291 M152.325 180.699 C 155.914 180.766,161.674 180.766,165.125 180.699 C 168.576 180.633,165.640 180.578,158.600 180.578 C 151.560 180.579,148.736 180.633,152.325 180.699 M235.500 180.699 C 238.855 180.766,244.345 180.766,247.700 180.699 C 251.055 180.632,248.310 180.578,241.600 180.578 C 234.890 180.578,232.145 180.632,235.500 180.699 M383.941 185.800 C 384.272 192.448,384.275 208.328,383.946 214.800 C 383.744 218.785,383.777 219.394,384.108 217.800 C 384.666 215.118,384.662 185.255,384.103 182.600 C 383.768 181.006,383.735 181.657,383.941 185.800 M15.862 190.500 C 15.547 194.539,15.601 207.246,15.947 210.800 C 16.086 212.230,16.200 207.505,16.200 200.300 C 16.200 193.095,16.182 187.200,16.159 187.200 C 16.137 187.200,16.003 188.685,15.862 190.500 M16.678 218.877 C 16.795 221.010,17.033 223.350,17.205 224.077 L 17.518 225.400 17.525 224.000 C 17.529 223.230,17.291 220.890,16.998 218.800 L 16.464 215.000 16.678 218.877 M153.900 219.899 C 157.035 219.967,162.165 219.967,165.300 219.899 C 168.435 219.832,165.870 219.776,159.600 219.776 C 153.330 219.776,150.765 219.832,153.900 219.899 M233.100 219.899 C 236.455 219.966,241.945 219.966,245.300 219.899 C 248.655 219.832,245.910 219.778,239.200 219.778 C 232.490 219.778,229.745 219.832,233.100 219.899 M143.905 220.283 C 144.402 220.379,145.122 220.375,145.505 220.275 C 145.887 220.175,145.480 220.096,144.600 220.101 C 143.720 220.105,143.407 220.187,143.905 220.283 M253.905 220.283 C 254.402 220.379,255.122 220.375,255.505 220.275 C 255.887 220.175,255.480 220.096,254.600 220.101 C 253.720 220.105,253.407 220.187,253.905 220.283 M131.800 221.200 C 130.453 221.441,130.390 221.491,131.400 221.514 C 132.060 221.529,133.410 221.397,134.400 221.220 C 136.015 220.933,136.056 220.901,134.800 220.907 C 134.030 220.911,132.680 221.042,131.800 221.200 M263.905 221.083 C 264.402 221.179,265.122 221.175,265.505 221.075 C 265.887 220.975,265.480 220.896,264.600 220.901 C 263.720 220.905,263.407 220.987,263.905 221.083 M382.854 224.314 C 382.365 228.130,382.292 229.441,382.587 229.147 C 382.866 228.867,383.724 221.191,383.501 220.967 C 383.395 220.861,383.104 222.367,382.854 224.314 M266.433 221.345 C 266.525 221.425,267.401 221.592,268.379 221.718 C 269.530 221.865,269.954 221.816,269.579 221.579 C 269.045 221.240,266.058 221.019,266.433 221.345 M123.600 222.800 C 122.808 223.054,122.767 223.120,123.400 223.120 C 123.840 223.120,124.650 222.976,125.200 222.800 C 125.992 222.546,126.033 222.480,125.400 222.480 C 124.960 222.480,124.150 222.624,123.600 222.800 M117.400 224.400 C 116.896 224.617,116.822 224.744,117.200 224.744 C 117.530 224.744,118.160 224.589,118.600 224.400 C 119.104 224.183,119.178 224.056,118.800 224.056 C 118.470 224.056,117.840 224.211,117.400 224.400 M17.693 226.800 C 17.693 227.570,17.775 227.885,17.876 227.500 C 17.976 227.115,17.976 226.485,17.876 226.100 C 17.775 225.715,17.693 226.030,17.693 226.800 M108.400 227.400 C 107.094 228.147,107.551 228.155,109.254 227.416 C 109.994 227.094,110.330 226.831,110.000 226.830 C 109.670 226.829,108.950 227.086,108.400 227.400 M18.043 229.323 C 17.979 231.003,20.333 242.601,20.670 242.264 C 20.768 242.165,20.392 239.770,19.833 236.942 C 18.071 228.016,18.090 228.097,18.043 229.323 M101.600 230.200 C 101.050 230.514,100.780 230.772,101.000 230.772 C 101.220 230.772,101.850 230.514,102.400 230.200 C 102.950 229.886,103.220 229.628,103.000 229.628 C 102.780 229.628,102.150 229.886,101.600 230.200 M381.255 234.267 C 380.720 236.930,380.683 238.215,381.175 237.000 C 381.569 236.026,382.147 232.000,381.893 232.000 C 381.792 232.000,381.506 233.020,381.255 234.267 M379.623 242.132 C 379.352 243.414,379.216 244.549,379.320 244.653 C 379.601 244.934,380.504 240.909,380.295 240.311 C 380.196 240.030,379.894 240.849,379.623 242.132 M21.061 244.400 C 21.312 246.370,21.990 248.036,21.957 246.600 C 21.947 246.160,21.690 245.080,21.385 244.200 L 20.832 242.600 21.061 244.400 M378.403 247.100 C 378.127 248.145,377.474 250.449,376.951 252.221 C 375.974 255.529,375.736 256.973,376.459 255.200 C 376.957 253.979,378.613 248.286,378.989 246.500 C 379.410 244.505,378.968 244.958,378.403 247.100 M22.617 250.200 C 23.029 252.314,24.861 258.072,25.060 257.874 C 25.260 257.674,23.413 251.194,22.759 249.800 C 22.464 249.172,22.434 249.258,22.617 250.200 M329.400 251.600 C 330.259 252.480,331.052 253.200,331.162 253.200 C 331.272 253.200,330.659 252.480,329.800 251.600 C 328.941 250.720,328.148 250.000,328.038 250.000 C 327.928 250.000,328.541 250.720,329.400 251.600 M375.200 257.800 C 374.936 258.599,374.810 259.344,374.920 259.454 C 375.030 259.564,375.336 258.999,375.600 258.200 C 375.864 257.401,375.990 256.656,375.880 256.546 C 375.770 256.436,375.464 257.001,375.200 257.800 M25.200 258.657 C 25.200 259.108,26.954 263.972,28.955 269.068 C 45.312 310.728,79.593 347.411,120.000 366.493 C 126.901 369.752,127.680 370.095,132.000 371.780 C 134.090 372.595,136.248 373.443,136.796 373.666 C 139.205 374.644,148.527 377.598,149.132 377.574 C 149.499 377.560,146.920 376.594,143.400 375.429 C 88.793 357.342,46.164 316.139,27.153 263.069 C 25.614 258.772,25.200 257.837,25.200 258.657 M373.986 261.473 C 357.937 311.064,311.064 357.937,261.473 373.986 C 260.633 374.257,260.044 374.578,260.164 374.698 C 260.632 375.166,272.038 370.565,280.400 366.535 C 307.179 353.628,330.583 334.393,347.972 311.000 C 351.329 306.484,353.086 303.916,357.409 297.200 C 363.434 287.842,375.827 261.294,374.698 260.164 C 374.578 260.044,374.257 260.633,373.986 261.473 M179.531 339.900 C 191.042 339.959,209.762 339.959,221.131 339.900 C 232.499 339.841,223.080 339.793,200.200 339.793 C 177.320 339.793,168.019 339.841,179.531 339.900 M257.400 375.386 C 256.740 375.688,256.470 375.942,256.800 375.949 C 257.130 375.957,257.940 375.717,258.600 375.414 C 259.260 375.112,259.530 374.858,259.200 374.851 C 258.870 374.843,258.060 375.083,257.400 375.386 M251.800 377.035 C 245.962 378.802,244.819 379.206,246.400 378.946 C 247.995 378.683,253.699 377.071,255.200 376.459 C 257.018 375.717,255.053 376.050,251.800 377.035 M151.037 378.142 C 151.717 378.453,153.067 378.813,154.037 378.941 L 155.800 379.173 154.191 378.638 C 153.307 378.344,151.957 377.985,151.191 377.839 L 149.800 377.575 151.037 378.142 M156.078 379.409 C 156.391 379.724,161.070 380.784,162.000 380.750 C 162.697 380.725,159.605 379.840,157.346 379.417 C 156.495 379.259,155.925 379.255,156.078 379.409 M241.600 379.720 C 240.484 379.989,240.104 380.204,240.600 380.286 C 241.040 380.359,242.210 380.162,243.200 379.849 C 245.311 379.181,244.206 379.091,241.600 379.720 M163.435 381.162 C 163.894 381.362,165.334 381.631,166.635 381.759 C 168.278 381.920,168.671 381.883,167.923 381.636 C 166.362 381.122,162.381 380.701,163.435 381.162 M233.600 381.429 L 231.400 381.969 233.765 381.747 C 236.355 381.505,238.679 380.834,236.800 380.870 C 236.250 380.881,234.810 381.133,233.600 381.429 M172.461 382.789 C 173.044 382.966,175.024 383.210,176.861 383.332 L 180.200 383.555 177.000 383.007 C 175.240 382.706,173.260 382.462,172.600 382.464 L 171.400 382.469 172.461 382.789 M224.200 382.843 C 222.880 383.033,221.530 383.270,221.200 383.370 C 220.199 383.672,226.638 383.135,228.068 382.797 L 229.400 382.482 228.000 382.490 C 227.230 382.494,225.520 382.653,224.200 382.843 M183.000 384.120 C 186.109 384.683,215.059 384.670,217.800 384.105 C 219.383 383.778,218.758 383.745,214.800 383.946 C 208.342 384.274,192.463 384.272,185.800 383.943 C 181.381 383.725,180.960 383.751,183.000 384.120 " stroke="none" fill="#a3999b" fill-rule="evenodd"></path><path id="path4" d="M138.577 60.837 C 138.422 61.089,140.058 62.925,142.411 65.138 C 148.999 71.335,157.344 81.144,160.680 86.613 C 169.362 100.843,174.611 113.621,177.241 126.928 C 179.111 136.388,179.280 138.864,179.482 159.700 L 179.679 180.000 161.539 180.067 L 143.400 180.133 161.600 180.426 C 171.610 180.588,179.935 180.637,180.100 180.536 C 181.164 179.886,180.091 140.957,178.779 132.600 C 174.782 107.146,162.684 83.818,144.383 66.274 C 141.532 63.541,139.200 61.192,139.200 61.053 C 139.200 60.914,166.470 60.800,199.800 60.800 C 233.130 60.800,260.400 60.861,260.400 60.936 C 260.400 61.011,257.377 64.116,253.683 67.836 C 247.219 74.345,243.247 79.122,238.854 85.675 C 229.704 99.323,223.223 115.912,220.991 131.400 C 220.674 133.600,220.212 136.390,219.965 137.600 C 219.235 141.175,218.948 180.333,219.650 180.581 C 219.953 180.687,228.210 180.629,238.000 180.452 L 255.800 180.130 237.900 180.065 L 220.000 180.000 220.004 163.100 C 220.007 144.993,220.346 137.944,221.560 130.745 C 225.895 105.028,238.197 82.633,258.314 63.834 C 259.697 62.541,260.762 61.285,260.681 61.042 C 260.471 60.414,138.965 60.209,138.577 60.837 M333.000 144.689 C 327.746 150.137,322.292 154.887,316.800 158.799 C 313.291 161.298,312.471 162.015,314.329 160.957 C 319.827 157.827,340.921 139.023,338.682 139.248 C 338.417 139.275,335.860 141.723,333.000 144.689 M60.000 200.176 C 60.000 245.906,60.114 260.823,60.467 261.041 C 60.753 261.218,62.499 259.722,64.990 257.165 C 70.321 251.690,72.941 249.293,78.005 245.253 C 82.883 241.361,83.785 240.525,81.045 242.436 C 77.038 245.232,69.263 252.023,65.127 256.340 C 62.778 258.793,60.753 260.800,60.627 260.800 C 60.502 260.800,60.400 233.620,60.400 200.400 C 60.400 166.043,60.551 140.000,60.751 140.000 C 60.944 140.000,62.069 141.044,63.251 142.320 C 69.942 149.543,79.825 157.768,87.600 162.582 C 94.024 166.560,105.726 172.407,106.237 171.896 C 106.324 171.810,104.407 170.870,101.978 169.809 C 88.493 163.913,74.703 154.059,64.843 143.271 C 59.392 137.307,60.000 130.162,60.000 200.176 M339.200 200.400 C 339.200 248.461,339.098 260.797,338.700 260.785 C 338.425 260.777,337.570 259.957,336.800 258.963 C 334.022 255.378,318.800 241.812,318.800 242.921 C 318.800 243.004,320.375 244.313,322.300 245.831 C 324.225 247.349,328.741 251.547,332.336 255.160 C 337.330 260.180,338.957 261.597,339.230 261.165 C 339.598 260.583,339.767 140.000,339.400 140.000 C 339.290 140.000,339.200 167.180,339.200 200.400 M306.874 164.986 C 302.152 167.689,301.566 168.277,305.901 165.962 C 308.831 164.398,311.355 162.787,310.800 162.835 C 310.690 162.845,308.923 163.813,306.874 164.986 M300.400 168.421 C 299.630 168.825,297.830 169.648,296.400 170.250 C 293.291 171.558,292.147 172.393,295.000 171.271 C 297.462 170.303,302.400 167.953,302.400 167.749 C 302.400 167.481,301.823 167.674,300.400 168.421 M106.800 172.135 C 106.800 172.240,107.610 172.601,108.600 172.938 C 110.409 173.554,111.183 173.473,109.500 172.844 C 107.807 172.210,106.800 171.946,106.800 172.135 M112.200 174.214 C 112.860 174.517,113.670 174.758,114.000 174.752 C 114.330 174.745,113.970 174.497,113.200 174.200 C 111.374 173.497,110.655 173.507,112.200 174.214 M117.800 176.000 C 118.240 176.189,118.870 176.344,119.200 176.344 C 119.578 176.344,119.504 176.217,119.000 176.000 C 118.560 175.811,117.930 175.656,117.600 175.656 C 117.222 175.656,117.296 175.783,117.800 176.000 M280.200 176.000 C 279.696 176.217,279.622 176.344,280.000 176.344 C 280.330 176.344,280.960 176.189,281.400 176.000 C 281.904 175.783,281.978 175.656,281.600 175.656 C 281.270 175.656,280.640 175.811,280.200 176.000 M275.024 177.250 C 274.157 177.453,273.347 177.721,273.224 177.845 C 272.901 178.171,276.086 177.562,276.800 177.161 C 277.539 176.746,277.072 176.770,275.024 177.250 M124.000 177.600 C 124.550 177.776,125.360 177.920,125.800 177.920 C 126.433 177.920,126.392 177.854,125.600 177.600 C 125.050 177.424,124.240 177.280,123.800 177.280 C 123.167 177.280,123.208 177.346,124.000 177.600 M130.600 178.800 C 131.260 178.968,132.250 179.105,132.800 179.105 C 133.692 179.105,133.670 179.072,132.600 178.800 C 131.940 178.632,130.950 178.495,130.400 178.495 C 129.508 178.495,129.530 178.528,130.600 178.800 M267.000 178.800 C 265.922 179.074,265.902 179.106,266.800 179.113 C 267.350 179.117,268.250 178.976,268.800 178.800 C 270.144 178.369,268.692 178.369,267.000 178.800 M134.705 179.483 C 135.202 179.579,135.922 179.575,136.305 179.475 C 136.687 179.375,136.280 179.296,135.400 179.301 C 134.520 179.305,134.207 179.387,134.705 179.483 M263.105 179.483 C 263.602 179.579,264.322 179.575,264.705 179.475 C 265.087 179.375,264.680 179.296,263.800 179.301 C 262.920 179.305,262.607 179.387,263.105 179.483 M139.091 179.889 C 139.801 179.977,141.061 179.979,141.891 179.892 C 142.721 179.805,142.140 179.733,140.600 179.731 C 139.060 179.729,138.381 179.800,139.091 179.889 M257.300 179.891 C 258.125 179.978,259.475 179.978,260.300 179.891 C 261.125 179.805,260.450 179.734,258.800 179.734 C 257.150 179.734,256.475 179.805,257.300 179.891 M158.400 220.000 L 145.800 220.217 162.739 220.309 L 179.679 220.400 179.490 240.700 C 179.262 265.282,178.527 271.475,174.209 285.200 C 172.191 291.617,166.656 304.146,163.800 308.765 C 163.580 309.120,162.963 310.129,162.430 311.006 C 161.378 312.734,158.795 316.753,158.320 317.400 C 154.963 321.973,150.142 327.508,144.922 332.784 C 141.339 336.405,138.553 339.513,138.731 339.691 C 138.909 339.869,143.542 339.963,149.027 339.900 L 159.000 339.785 148.861 339.693 L 138.723 339.600 143.768 334.753 C 159.460 319.674,173.348 296.161,176.224 279.800 C 176.379 278.920,176.650 277.919,176.826 277.576 C 177.144 276.958,178.167 271.824,178.815 267.600 C 180.257 258.193,181.116 221.276,179.920 220.080 C 179.595 219.755,178.080 219.629,175.220 219.691 C 172.899 219.742,165.330 219.881,158.400 220.000 M219.423 219.911 C 219.048 220.286,219.214 251.849,219.622 257.600 C 221.844 288.980,235.949 317.856,258.727 337.654 C 259.647 338.454,260.400 339.216,260.400 339.347 C 260.400 339.478,256.125 339.637,250.900 339.700 L 241.400 339.815 251.100 339.908 C 258.122 339.974,260.800 339.875,260.800 339.546 C 260.800 339.296,258.127 336.461,254.861 333.246 C 237.106 315.769,225.711 294.095,221.595 269.972 C 220.318 262.486,220.024 256.501,220.012 237.700 L 220.000 220.400 236.300 220.368 C 245.265 220.351,252.420 220.276,252.200 220.201 C 251.495 219.961,219.654 219.679,219.423 219.911 M140.500 220.687 C 141.105 220.778,142.095 220.778,142.700 220.687 C 143.305 220.595,142.810 220.520,141.600 220.520 C 140.390 220.520,139.895 220.595,140.500 220.687 M256.900 220.687 C 257.505 220.778,258.495 220.778,259.100 220.687 C 259.705 220.595,259.210 220.520,258.000 220.520 C 256.790 220.520,256.295 220.595,256.900 220.687 M264.500 221.476 C 264.885 221.576,265.515 221.576,265.900 221.476 C 266.285 221.375,265.970 221.293,265.200 221.293 C 264.430 221.293,264.115 221.375,264.500 221.476 M130.500 221.876 C 130.885 221.976,131.515 221.976,131.900 221.876 C 132.285 221.775,131.970 221.693,131.200 221.693 C 130.430 221.693,130.115 221.775,130.500 221.876 M267.300 221.876 C 267.685 221.976,268.315 221.976,268.700 221.876 C 269.085 221.775,268.770 221.693,268.000 221.693 C 267.230 221.693,266.915 221.775,267.300 221.876 M271.000 222.400 C 272.692 222.831,274.144 222.831,272.800 222.400 C 272.250 222.224,271.350 222.083,270.800 222.087 C 269.902 222.094,269.922 222.126,271.000 222.400 M119.800 224.000 C 118.781 224.438,119.832 224.438,121.200 224.000 C 122.004 223.743,122.043 223.677,121.400 223.668 C 120.960 223.662,120.240 223.811,119.800 224.000 M278.200 224.000 C 278.640 224.189,279.270 224.344,279.600 224.344 C 279.978 224.344,279.904 224.217,279.400 224.000 C 278.960 223.811,278.330 223.656,278.000 223.656 C 277.622 223.656,277.696 223.783,278.200 224.000 M113.800 225.786 C 112.255 226.493,112.974 226.503,114.800 225.800 C 115.570 225.503,115.930 225.255,115.600 225.248 C 115.270 225.242,114.460 225.483,113.800 225.786 M283.800 225.600 C 284.240 225.789,284.870 225.944,285.200 225.944 C 285.578 225.944,285.504 225.817,285.000 225.600 C 284.560 225.411,283.930 225.256,283.600 225.256 C 283.222 225.256,283.296 225.383,283.800 225.600 M288.200 226.955 C 288.860 227.255,289.850 227.611,290.400 227.746 C 291.203 227.943,291.164 227.884,290.200 227.445 C 289.540 227.145,288.550 226.789,288.000 226.654 C 287.197 226.457,287.236 226.516,288.200 226.955 M292.400 228.566 C 292.950 228.860,293.850 229.212,294.400 229.349 C 294.950 229.486,294.680 229.252,293.800 228.829 C 291.990 227.958,290.868 227.748,292.400 228.566 M102.800 230.000 C 102.030 230.422,101.580 230.766,101.800 230.766 C 102.020 230.766,102.830 230.422,103.600 230.000 C 104.370 229.578,104.820 229.234,104.600 229.234 C 104.380 229.234,103.570 229.578,102.800 230.000 M298.029 230.924 C 302.745 233.213,303.600 233.590,303.600 233.382 C 303.600 233.141,296.133 229.589,295.698 229.624 C 295.534 229.637,296.583 230.222,298.029 230.924 M99.600 231.400 C 99.050 231.714,98.780 231.972,99.000 231.972 C 99.220 231.972,99.850 231.714,100.400 231.400 C 100.950 231.086,101.220 230.828,101.000 230.828 C 100.780 230.828,100.150 231.086,99.600 231.400 M95.100 233.626 C 93.835 234.279,92.800 234.903,92.800 235.012 C 92.800 235.122,93.880 234.666,95.200 234.000 C 96.520 233.334,97.600 232.701,97.600 232.594 C 97.600 232.328,97.674 232.297,95.100 233.626 M304.800 234.138 C 304.800 234.240,305.745 234.859,306.900 235.513 C 311.873 238.328,312.228 238.508,311.296 237.742 C 310.254 236.887,304.800 233.861,304.800 234.138 M91.100 235.829 C 89.605 236.640,89.696 236.978,91.200 236.200 C 91.860 235.859,92.400 235.494,92.400 235.390 C 92.400 235.132,92.357 235.147,91.100 235.829 M87.733 237.926 C 85.502 239.363,84.993 239.976,87.000 238.808 C 88.477 237.948,90.020 236.766,89.586 236.826 C 89.484 236.840,88.650 237.335,87.733 237.926 M312.400 238.556 C 312.400 238.668,313.750 239.666,315.400 240.774 C 319.028 243.212,319.399 243.143,315.900 240.682 C 312.995 238.639,312.400 238.278,312.400 238.556 " stroke="none" fill="#c79295" fill-rule="evenodd"></path></g></svg>